<svg xmlns="http://www.w3.org/2000/svg" xmlns:xlink="http://www.w3.org/1999/xlink">
   
    <symbol id="delete" viewBox="0 0 24 24">
        <path d="M6,19a2.006,2.006,0,0,0,2,2h8a2.006,2.006,0,0,0,2-2V7H6ZM8,9h8V19H8Zm7.5-5-1-1h-5l-1,1H5V6H19V4Z"/>
        <path d="M0,0H24V24H0Z" fill="none"/>
    </symbol>
    <symbol id="chevron-left" viewBox="0 0 512 512" >
		<path d="M379.644,477.872l-207.299-207.73c-7.798-7.798-7.798-20.486,0.015-28.299L379.643,34.128
			c7.803-7.819,7.789-20.482-0.029-28.284c-7.819-7.803-20.482-7.79-28.284,0.029L144.061,213.574
			c-23.394,23.394-23.394,61.459-0.015,84.838L351.33,506.127c3.907,3.915,9.031,5.873,14.157,5.873
			c5.111,0,10.224-1.948,14.128-5.844C387.433,498.354,387.446,485.691,379.644,477.872z"/>
    </symbol>
    <symbol id="chevron-right" viewBox="0 0 512 512" >
		  <path d="M367.954,213.588L160.67,5.872c-7.804-7.819-20.467-7.831-28.284-0.029c-7.819,7.802-7.832,20.465-0.03,28.284
			l207.299,207.731c7.798,7.798,7.798,20.486-0.015,28.299L132.356,477.873c-7.802,7.819-7.789,20.482,0.03,28.284
			c3.903,3.896,9.016,5.843,14.127,5.843c5.125,0,10.25-1.958,14.157-5.873l207.269-207.701
			C391.333,275.032,391.333,236.967,367.954,213.588z"/>
    </symbol>
    <symbol id="chevron-down" viewBox="0 0 24 24" fill="none" >
      <path fill-rule="evenodd" clip-rule="evenodd" d="M15.0625 10L16 10.9375L12 14.9375L8 10.9375L8.9375 10L12 13.0625L15.0625 10Z" fill="#333333"/>
      <mask id="mask0" mask-type="alpha" maskUnits="userSpaceOnUse" x="8" y="10" width="8" height="5">
      <path fill-rule="evenodd" clip-rule="evenodd" d="M15.0625 10L16 10.9375L12 14.9375L8 10.9375L8.9375 10L12 13.0625L15.0625 10Z" fill="white"/>
      </mask>
      <g mask="url(#mask0)">
      </g>
    </symbol>


</svg>